<svg width="24" height="24" viewBox="0 0 24 24" fill="none" xmlns="http://www.w3.org/2000/svg">
<path fill-rule="evenodd" clip-rule="evenodd" d="M7.6129 7.25524C7.6129 4.90514 9.57707 3 12 3C14.4229 3 16.3871 4.90514 16.3871 7.25524C16.3871 9.60535 14.4229 11.5105 12 11.5105C9.57707 11.5105 7.6129 9.60535 7.6129 7.25524ZM12 4.50185C10.4322 4.50185 9.16129 5.73459 9.16129 7.25524C9.16129 8.7759 10.4322 10.0086 12 10.0086C13.5678 10.0086 14.8387 8.7759 14.8387 7.25524C14.8387 5.73459 13.5678 4.50185 12 4.50185Z" fill="black"/>
<path fill-rule="evenodd" clip-rule="evenodd" d="M7.87097 14.5142C6.58824 14.5142 5.54839 15.5228 5.54839 16.767V17.9567C5.54839 17.9748 5.56192 17.9903 5.58036 17.9932C9.83197 18.6665 14.168 18.6665 18.4196 17.9932C18.4381 17.9903 18.4516 17.9748 18.4516 17.9567V16.767C18.4516 15.5228 17.4118 14.5142 16.129 14.5142H15.7772C15.75 14.5142 15.7229 14.5184 15.6971 14.5265L14.8036 14.8095C12.9819 15.3865 11.0181 15.3865 9.19637 14.8095L8.30294 14.5265C8.27707 14.5184 8.25004 14.5142 8.22283 14.5142H7.87097ZM4 16.767C4 14.6933 5.73309 13.0123 7.87097 13.0123H8.22283C8.41328 13.0123 8.60252 13.0415 8.78356 13.0989L9.67699 13.3818C11.1864 13.8599 12.8136 13.8599 14.323 13.3818L15.2164 13.0989C15.3975 13.0415 15.5867 13.0123 15.7772 13.0123H16.129C18.2669 13.0123 20 14.6933 20 16.767V17.9567C20 18.7109 19.4365 19.3539 18.6691 19.4754C14.2523 20.1749 9.74771 20.1749 5.33086 19.4754C4.56349 19.3539 4 18.7109 4 17.9567V16.767Z" fill="black"/>
</svg>
