<svg width="230" height="186" viewBox="0 0 230 186" fill="none" xmlns="http://www.w3.org/2000/svg">
<path fill-rule="evenodd" clip-rule="evenodd" d="M37.72 140.322C40.3944 142.225 43.2122 144.031 46.1616 145.729L56.572 141.818L27.5756 131.978C30.6609 134.921 34.0499 137.709 37.72 140.322ZM66.125 145.061L53.7337 149.715C71.2974 158.148 92.6242 163.068 115.669 163.068C148.181 163.068 176.854 153.277 196.407 137.695C213.634 123.966 223.611 105.941 223.611 85.986C223.611 64.7168 212.096 44.9644 192.494 30.308C172.891 15.6507 145.514 6.39484 115 6.39484C84.4863 6.39484 57.1093 15.6507 37.5063 30.308C17.9043 44.9644 6.38889 64.7168 6.38889 85.9863C6.38889 99.1293 10.852 111.47 18.9514 122.299L19.8922 122.618L66.0157 138.271L75.5687 141.513L66.125 145.061ZM115.669 169.463C89.4259 169.463 65.1213 163.319 45.6339 152.757L44.9656 153.009L36.271 174.918L32.5287 184.348L29.4966 174.666L14.7667 127.631L14.6162 127.151C5.31444 115.132 1.38631e-05 101.145 0 85.9863C7.51027e-06 38.4973 51.4874 0 115 0C178.513 0 230 38.4973 230 85.986C230 108.263 218.817 128.01 200.387 142.698C179.528 159.32 149.388 169.463 115.669 169.463ZM24.7275 138.058C29.1884 142.123 34.1655 145.865 39.5859 149.242L39.0278 150.648L33.2388 165.236L24.7275 138.058ZM51.0757 102.317H56.487V78.906H51.0757V102.317ZM56.1293 74.4743C56.7851 73.8774 57.1132 73.0716 57.1132 72.0571C57.1132 71.0125 56.7851 70.192 56.1293 69.5951C55.4734 68.9981 54.6982 68.6998 53.8037 68.6998C52.8796 68.6998 52.0893 68.9981 51.4334 69.5951C50.7776 70.192 50.4495 71.0125 50.4495 72.0571C50.4495 73.0716 50.7776 73.8774 51.4334 74.4743C52.0893 75.0713 52.8796 75.3696 53.8037 75.3696C54.6982 75.3696 55.4734 75.0713 56.1293 74.4743ZM45.4854 67.8493C44.7101 67.6702 43.7562 67.5807 42.6232 67.5807C39.3734 67.5807 36.9584 68.4312 35.3782 70.1322C33.7979 71.8333 33.0079 74.2058 33.0079 77.2497V102.317H38.4193V83.4271H47.0059V78.906H38.4193V77.3392C38.4193 75.8173 38.7473 74.5789 39.4032 73.6238C40.089 72.6688 41.3262 72.1914 43.1151 72.1914C43.8009 72.1914 44.4271 72.2512 44.9934 72.3704C45.5898 72.4897 46.0965 72.624 46.514 72.7733L47.3637 68.3865C46.9165 68.2074 46.2904 68.0283 45.4854 67.8493ZM67.4747 78.8164C65.8052 79.085 64.4486 79.3686 63.4049 79.667V102.317H68.8163V83.4271C69.1741 83.3673 69.7258 83.2928 70.471 83.2033C71.2166 83.1138 71.9322 83.069 72.6177 83.069C73.5422 83.069 74.3172 83.2033 74.9433 83.4719C75.5994 83.7107 76.106 84.1136 76.4638 84.6805C76.8516 85.2177 77.12 85.9339 77.2688 86.8292C77.4477 87.6947 77.5371 88.754 77.5371 90.0074V102.317H82.9485V89.1569C82.9485 87.5751 82.7847 86.128 82.4566 84.8148C82.1586 83.4719 81.6219 82.3378 80.8466 81.4127C80.1013 80.4577 79.0877 79.7267 77.8055 79.2193C76.5236 78.6821 74.9286 78.4136 73.0202 78.4136C70.993 78.4136 69.1444 78.5479 67.4747 78.8164ZM89.1633 85.3072C88.5669 86.8589 88.2689 88.6645 88.2689 90.7236C88.2689 92.4845 88.5072 94.1107 88.9844 95.6029C89.4614 97.0651 90.1919 98.3485 91.1758 99.4526C92.1597 100.527 93.4119 101.377 94.9325 102.004C96.4531 102.601 98.2419 102.899 100.299 102.899C101.104 102.899 101.894 102.855 102.669 102.765C103.444 102.676 104.16 102.556 104.816 102.407C105.502 102.288 106.098 102.153 106.605 102.004C107.142 101.825 107.559 101.661 107.857 101.512L107.142 97.0801C106.516 97.3487 105.651 97.6023 104.548 97.8411C103.474 98.0799 102.282 98.1992 100.97 98.1992C98.7339 98.1992 97.0194 97.6918 95.8269 96.6772C94.6642 95.6326 94.008 94.1705 93.8592 92.2904H109.288C109.318 91.9921 109.333 91.6637 109.333 91.3056C109.363 90.9177 109.378 90.5743 109.378 90.276C109.378 86.307 108.468 83.3226 106.65 81.3232C104.861 79.3239 102.356 78.324 99.1364 78.324C97.7647 78.324 96.423 78.5926 95.1114 79.1298C93.7994 79.6372 92.6366 80.4129 91.6231 81.4575C90.6091 82.4721 89.7894 83.7555 89.1633 85.3072ZM103.653 86.2025C103.862 86.8589 103.966 87.5604 103.966 88.3064H93.9039C93.9933 87.6199 94.1572 86.9484 94.3958 86.292C94.6341 85.6356 94.9622 85.0536 95.3797 84.5462C95.8269 84.0388 96.3636 83.6359 96.9897 83.3376C97.6158 83.0092 98.3461 82.8452 99.1811 82.8452C99.9861 82.8452 100.672 82.9945 101.238 83.2928C101.834 83.5614 102.326 83.9493 102.714 84.4567C103.131 84.9341 103.444 85.516 103.653 86.2025ZM120.124 101.915C120.839 101.258 121.197 100.408 121.197 99.3631C121.197 98.3185 120.839 97.468 120.124 96.8115C119.438 96.125 118.603 95.782 117.619 95.782C116.606 95.782 115.756 96.125 115.07 96.8115C114.385 97.468 114.042 98.3185 114.042 99.3631C114.042 100.408 114.385 101.258 115.07 101.915C115.756 102.571 116.606 102.899 117.619 102.899C118.603 102.899 119.438 102.571 120.124 101.915ZM145.062 102.317H150.474V78.906H145.062V102.317ZM150.116 74.4743C150.772 73.8774 151.1 73.0716 151.1 72.0571C151.1 71.0125 150.772 70.192 150.116 69.5951C149.46 68.9981 148.685 68.6998 147.79 68.6998C146.866 68.6998 146.076 68.9981 145.42 69.5951C144.764 70.192 144.436 71.0125 144.436 72.0571C144.436 73.0716 144.764 73.8774 145.42 74.4743C146.076 75.0713 146.866 75.3696 147.79 75.3696C148.685 75.3696 149.46 75.0713 150.116 74.4743ZM139.472 67.8493C138.697 67.6702 137.743 67.5807 136.61 67.5807C133.36 67.5807 130.945 68.4312 129.365 70.1322C127.784 71.8333 126.994 74.2058 126.994 77.2497V102.317H132.406V83.4271H140.993V78.906H132.406V77.3392C132.406 75.8173 132.734 74.5789 133.39 73.6238C134.075 72.6688 135.313 72.1914 137.102 72.1914C137.787 72.1914 138.413 72.2512 138.98 72.3704C139.576 72.4897 140.083 72.624 140.501 72.7733L141.35 68.3865C140.903 68.2074 140.277 68.0283 139.472 67.8493ZM166.381 97.9306C165.725 98.259 164.681 98.423 163.25 98.423C161.819 98.423 160.537 98.2737 159.404 97.9754C158.301 97.6771 157.347 97.3637 156.542 97.0353L155.603 101.557C156.11 101.765 156.989 102.034 158.241 102.362C159.493 102.72 161.148 102.899 163.205 102.899C166.276 102.899 168.632 102.333 170.272 101.198C171.941 100.035 172.776 98.3335 172.776 96.0953C172.776 95.0507 172.642 94.1554 172.373 93.4095C172.105 92.6635 171.673 92.0068 171.077 91.4399C170.51 90.8429 169.78 90.3208 168.885 89.8731C167.991 89.3957 166.902 88.9181 165.62 88.4407C164.845 88.1721 164.189 87.9185 163.653 87.6797C163.116 87.4111 162.684 87.1576 162.356 86.9187C162.028 86.6501 161.789 86.3665 161.64 86.0682C161.521 85.7699 161.461 85.4265 161.461 85.0386C161.461 84.2626 161.804 83.6957 162.49 83.3376C163.176 82.9497 164.07 82.7557 165.173 82.7557C166.396 82.7557 167.469 82.8749 168.393 83.1138C169.317 83.3226 170.078 83.5614 170.674 83.83L171.658 79.4431C171.032 79.2043 170.093 78.9658 168.84 78.7269C167.588 78.4583 166.276 78.324 164.905 78.324C162.192 78.324 160.045 78.9507 158.465 80.2041C156.885 81.4278 156.095 83.1138 156.095 85.2624C156.095 86.3665 156.258 87.3066 156.587 88.0826C156.944 88.8285 157.421 89.4702 158.018 90.0074C158.614 90.5446 159.315 91.022 160.12 91.4399C160.954 91.8277 161.864 92.2008 162.848 92.559C164.458 93.1559 165.605 93.7078 166.291 94.2152C167.007 94.7227 167.365 95.3641 167.365 96.1401C167.365 96.9756 167.037 97.5725 166.381 97.9306ZM177.831 68.476V102.317H183.242V83.6957C183.6 83.5764 184.152 83.4421 184.897 83.2928C185.643 83.1435 186.373 83.069 187.088 83.069C188.013 83.069 188.788 83.2033 189.414 83.4719C190.04 83.7107 190.532 84.1136 190.89 84.6805C191.278 85.2177 191.546 85.9339 191.695 86.8292C191.874 87.6947 191.963 88.754 191.963 90.0074V102.317H197.374V89.1569C197.374 87.5454 197.211 86.0832 196.883 84.77C196.585 83.4569 196.063 82.3378 195.317 81.4127C194.572 80.4577 193.573 79.7267 192.321 79.2193C191.099 78.6821 189.548 78.4136 187.67 78.4136C186.895 78.4136 186.105 78.4881 185.3 78.6374C184.525 78.7867 183.839 78.9658 183.242 79.1745V67.5807L177.831 68.476Z" fill="url(#paint0_radial_212_1920)"/>
<defs>
<radialGradient id="paint0_radial_212_1920" cx="0" cy="0" r="1" gradientUnits="userSpaceOnUse" gradientTransform="translate(46.7641 73.8525) rotate(10.5134) scale(157.694 537.377)">
<stop stop-color="#619492"/>
<stop offset="1" stop-color="#F2F9FB"/>
</radialGradient>
</defs>
</svg>
