<svg width="230" height="190" viewBox="0 0 230 190" fill="none" xmlns="http://www.w3.org/2000/svg">
<path fill-rule="evenodd" clip-rule="evenodd" d="M37.5994 29.9084C17.8991 44.6247 5.99999 64.7228 6 86.6651C6 97.8943 9.15966 108.485 14.9133 118.043L74.7335 138.326L81.3642 140.574L74.8091 143.034L53.1089 151.177C70.8506 159.858 92.4165 164.889 115.652 164.889C147.924 164.889 176.589 155.185 196.291 139.499C213.675 125.657 224 107.252 224 86.6651C224 64.7228 212.101 44.6247 192.401 29.9084C172.7 15.1917 145.344 6 115 6C84.6556 6 57.3003 15.1917 37.5994 29.9084ZM0 86.6651C2.45206e-06 99.6867 3.83994 111.799 10.6376 122.537L29.628 183.119L31.7357 189.843L34.337 183.294L45.8916 154.205C65.3766 164.786 89.5975 170.889 115.652 170.889C149.057 170.889 179.101 160.854 200.028 144.193C218.543 129.451 230 109.43 230 86.6651C230 62.4005 216.827 40.666 195.991 25.1015C175.156 9.53739 146.512 0 115 0C83.4885 0 54.8438 9.53739 34.0086 25.1015C13.173 40.666 2.45206e-06 62.4004 0 86.6651ZM32.2914 174.9L41.5064 151.701C39.0472 150.224 36.6733 148.672 34.3913 147.049C28.8512 143.109 23.8421 138.739 19.469 133.994L32.2914 174.9ZM37.8686 142.16C40.8096 144.251 43.919 146.222 47.1812 148.062L66.4972 140.813L19.6387 124.925C24.5653 131.276 30.7076 137.067 37.8686 142.16ZM57.8247 100.111H62.6647V79.1911H57.8247V100.111ZM62.3447 75.2311C62.9313 74.6978 63.2247 73.9778 63.2247 73.0711C63.2247 72.1378 62.9313 71.4044 62.3447 70.8711C61.758 70.3378 61.0647 70.0711 60.2647 70.0711C59.438 70.0711 58.7313 70.3378 58.1447 70.8711C57.558 71.4044 57.2647 72.1378 57.2647 73.0711C57.2647 73.9778 57.558 74.6978 58.1447 75.2311C58.7313 75.7644 59.438 76.0311 60.2647 76.0311C61.0647 76.0311 61.758 75.7644 62.3447 75.2311ZM52.8247 69.3111C52.1313 69.1511 51.278 69.0711 50.2647 69.0711C47.358 69.0711 45.198 69.8311 43.7847 71.3511C42.3713 72.8711 41.6647 74.9911 41.6647 77.7111V100.111H46.5047V83.2311H54.1847V79.1911H46.5047V77.7911C46.5047 76.4311 46.798 75.3244 47.3847 74.4711C47.998 73.6178 49.1047 73.1911 50.7047 73.1911C51.318 73.1911 51.878 73.2444 52.3847 73.3511C52.918 73.4578 53.3713 73.5778 53.7447 73.7111L54.5047 69.7911C54.1047 69.6311 53.5447 69.4711 52.8247 69.3111ZM72.4922 79.1111C70.9988 79.3511 69.7855 79.6044 68.8522 79.8711V100.111H73.6922V83.2311C74.0122 83.1778 74.5055 83.1111 75.1722 83.0311C75.8388 82.9511 76.4788 82.9111 77.0922 82.9111C77.9188 82.9111 78.6122 83.0311 79.1722 83.2711C79.7588 83.4844 80.2122 83.8444 80.5322 84.3511C80.8788 84.8311 81.1188 85.4711 81.2522 86.2711C81.4122 87.0444 81.4922 87.9911 81.4922 89.1111V100.111H86.3322V88.3511C86.3322 86.9378 86.1855 85.6444 85.8922 84.4711C85.6255 83.2711 85.1455 82.2578 84.4522 81.4311C83.7855 80.5778 82.8788 79.9244 81.7322 79.4711C80.5855 78.9911 79.1588 78.7511 77.4522 78.7511C75.6388 78.7511 73.9855 78.8711 72.4922 79.1111ZM91.8906 84.9111C91.3573 86.2978 91.0906 87.9111 91.0906 89.7511C91.0906 91.3244 91.3039 92.7778 91.7306 94.1111C92.1573 95.4178 92.8106 96.5644 93.6906 97.5511C94.5706 98.5111 95.6906 99.2711 97.0506 99.8311C98.4106 100.364 100.011 100.631 101.851 100.631C102.571 100.631 103.277 100.591 103.971 100.511C104.664 100.431 105.304 100.324 105.891 100.191C106.504 100.084 107.037 99.9644 107.491 99.8311C107.971 99.6711 108.344 99.5244 108.611 99.3911L107.971 95.4311C107.411 95.6711 106.637 95.8978 105.651 96.1111C104.691 96.3244 103.624 96.4311 102.451 96.4311C100.451 96.4311 98.9173 95.9778 97.8506 95.0711C96.8106 94.1378 96.2239 92.8311 96.0906 91.1511H109.891C109.917 90.8844 109.931 90.5911 109.931 90.2711C109.957 89.9244 109.971 89.6178 109.971 89.3511C109.971 85.8044 109.157 83.1378 107.531 81.3511C105.931 79.5644 103.691 78.6711 100.811 78.6711C99.5839 78.6711 98.3839 78.9111 97.2106 79.3911C96.0373 79.8444 94.9973 80.5378 94.0906 81.4711C93.1839 82.3778 92.4506 83.5244 91.8906 84.9111ZM104.851 85.7111C105.037 86.2978 105.131 86.9244 105.131 87.5911H96.1306C96.2106 86.9778 96.3573 86.3778 96.5706 85.7911C96.7839 85.2044 97.0773 84.6844 97.4506 84.2311C97.8506 83.7778 98.3306 83.4178 98.8906 83.1511C99.4506 82.8578 100.104 82.7111 100.851 82.7111C101.571 82.7111 102.184 82.8444 102.691 83.1111C103.224 83.3511 103.664 83.6978 104.011 84.1511C104.384 84.5778 104.664 85.0978 104.851 85.7111ZM119.582 99.7511C120.222 99.1644 120.542 98.4044 120.542 97.4711C120.542 96.5378 120.222 95.7778 119.582 95.1911C118.969 94.5778 118.222 94.2711 117.342 94.2711C116.435 94.2711 115.675 94.5778 115.062 95.1911C114.449 95.7778 114.142 96.5378 114.142 97.4711C114.142 98.4044 114.449 99.1644 115.062 99.7511C115.675 100.338 116.435 100.631 117.342 100.631C118.222 100.631 118.969 100.338 119.582 99.7511ZM141.887 100.111H146.727V79.1911H141.887V100.111ZM146.407 75.2311C146.994 74.6978 147.287 73.9778 147.287 73.0711C147.287 72.1378 146.994 71.4044 146.407 70.8711C145.82 70.3378 145.127 70.0711 144.327 70.0711C143.501 70.0711 142.794 70.3378 142.207 70.8711C141.62 71.4044 141.327 72.1378 141.327 73.0711C141.327 73.9778 141.62 74.6978 142.207 75.2311C142.794 75.7644 143.501 76.0311 144.327 76.0311C145.127 76.0311 145.82 75.7644 146.407 75.2311ZM136.887 69.3111C136.194 69.1511 135.34 69.0711 134.327 69.0711C131.421 69.0711 129.26 69.8311 127.847 71.3511C126.434 72.8711 125.727 74.9911 125.727 77.7111V100.111H130.567V83.2311H138.247V79.1911H130.567V77.7911C130.567 76.4311 130.86 75.3244 131.447 74.4711C132.061 73.6178 133.167 73.1911 134.767 73.1911C135.38 73.1911 135.94 73.2444 136.447 73.3511C136.98 73.4578 137.434 73.5778 137.807 73.7111L138.567 69.7911C138.167 69.6311 137.607 69.4711 136.887 69.3111ZM160.955 96.1911C160.368 96.4844 159.435 96.6311 158.155 96.6311C156.875 96.6311 155.728 96.4978 154.715 96.2311C153.728 95.9644 152.875 95.6844 152.155 95.3911L151.315 99.4311C151.768 99.6178 152.555 99.8578 153.675 100.151C154.795 100.471 156.275 100.631 158.115 100.631C160.861 100.631 162.968 100.124 164.435 99.1111C165.928 98.0711 166.675 96.5511 166.675 94.5511C166.675 93.6178 166.555 92.8178 166.315 92.1511C166.075 91.4844 165.688 90.8978 165.155 90.3911C164.648 89.8578 163.995 89.3911 163.195 88.9911C162.395 88.5644 161.421 88.1378 160.275 87.7111C159.581 87.4711 158.995 87.2444 158.515 87.0311C158.035 86.7911 157.648 86.5644 157.355 86.3511C157.061 86.1111 156.848 85.8578 156.715 85.5911C156.608 85.3244 156.555 85.0178 156.555 84.6711C156.555 83.9778 156.861 83.4711 157.475 83.1511C158.088 82.8044 158.888 82.6311 159.875 82.6311C160.968 82.6311 161.928 82.7378 162.755 82.9511C163.581 83.1378 164.261 83.3511 164.795 83.5911L165.675 79.6711C165.115 79.4578 164.275 79.2444 163.155 79.0311C162.035 78.7911 160.861 78.6711 159.635 78.6711C157.208 78.6711 155.288 79.2311 153.875 80.3511C152.461 81.4444 151.755 82.9511 151.755 84.8711C151.755 85.8578 151.901 86.6978 152.195 87.3911C152.515 88.0578 152.941 88.6311 153.475 89.1111C154.008 89.5911 154.635 90.0178 155.355 90.3911C156.101 90.7378 156.915 91.0711 157.795 91.3911C159.235 91.9244 160.261 92.4178 160.875 92.8711C161.515 93.3244 161.835 93.8978 161.835 94.5911C161.835 95.3378 161.541 95.8711 160.955 96.1911ZM171.196 69.8711V100.111H176.036V83.4711C176.356 83.3644 176.849 83.2444 177.516 83.1111C178.183 82.9778 178.836 82.9111 179.476 82.9111C180.303 82.9111 180.996 83.0311 181.556 83.2711C182.116 83.4844 182.556 83.8444 182.876 84.3511C183.223 84.8311 183.463 85.4711 183.596 86.2711C183.756 87.0444 183.836 87.9911 183.836 89.1111V100.111H188.676V88.3511C188.676 86.9111 188.529 85.6044 188.236 84.4311C187.969 83.2578 187.503 82.2578 186.836 81.4311C186.169 80.5778 185.276 79.9244 184.156 79.4711C183.063 78.9911 181.676 78.7511 179.996 78.7511C179.303 78.7511 178.596 78.8178 177.876 78.9511C177.183 79.0844 176.569 79.2444 176.036 79.4311V69.0711L171.196 69.8711Z" fill="url(#paint0_radial_174_1993)"/>
<defs>
<radialGradient id="paint0_radial_174_1993" cx="0" cy="0" r="1" gradientUnits="userSpaceOnUse" gradientTransform="translate(46.7641 76.6527) rotate(10.9026) scale(157.897 557.037)">
<stop stop-color="#151B28"/>
<stop offset="1" stop-color="#3E4D6B"/>
</radialGradient>
</defs>
</svg>
